<svg width="346" height="225" viewBox="0 0 346 225" fill="none" xmlns="http://www.w3.org/2000/svg">
<path d="M165.953 105.35V137.693H160.697L160.329 134.547C158.575 137.277 155.764 138.202 152.996 138.202C146.31 138.202 141.284 133.759 141.284 126.264C141.284 118.398 146.217 114.327 152.858 114.327C155.256 114.327 158.992 115.621 160.329 117.982V105.35H165.953ZM146.909 126.264C146.909 130.244 149.769 132.973 153.365 132.973C156.917 132.973 159.959 130.382 159.959 126.264C159.959 122.285 156.917 119.6 153.365 119.6C149.769 119.601 146.909 122.146 146.909 126.264Z" fill="url(#paint0_linear_3_44)"/>
<path d="M176.141 128.301C176.509 131.123 178.954 133.159 182.919 133.159C184.994 133.159 187.715 132.372 189.006 131.03L192.602 134.594C190.204 137.092 186.285 138.296 182.827 138.296C174.987 138.296 170.329 133.438 170.329 126.126C170.329 119.185 175.033 114.189 182.411 114.189C190.021 114.189 194.771 118.908 193.894 128.302H176.141V128.301ZM188.498 123.627C188.13 120.666 185.822 119.185 182.594 119.185C179.552 119.185 177.061 120.666 176.232 123.627H188.498Z" fill="url(#paint1_linear_3_44)"/>
<path d="M203.02 128.301C203.389 131.123 205.832 133.159 209.797 133.159C211.873 133.159 214.594 132.372 215.885 131.03L219.481 134.594C217.083 137.092 213.164 138.296 209.706 138.296C201.866 138.296 197.208 133.438 197.208 126.126C197.208 119.185 201.913 114.189 209.291 114.189C216.9 114.189 221.65 118.908 220.773 128.302H203.02V128.301ZM215.376 123.627C215.009 120.666 212.701 119.185 209.474 119.185C206.431 119.185 203.942 120.666 203.11 123.627H215.376Z" fill="url(#paint2_linear_3_44)"/>
<path d="M225.103 147.225V114.882H230.359L230.727 118.029C232.48 115.483 235.524 114.373 238.106 114.373C245.115 114.373 249.772 119.601 249.772 126.311C249.772 132.973 245.576 138.249 238.29 138.249C235.892 138.249 232.341 137.508 230.727 135.01V147.226H225.103V147.225ZM244.147 126.311C244.147 122.747 241.749 119.832 237.692 119.832C233.634 119.832 231.236 122.747 231.236 126.311C231.236 129.873 233.865 132.788 237.692 132.788C241.518 132.788 244.147 129.873 244.147 126.311Z" fill="url(#paint3_linear_3_44)"/>
<path d="M50.2307 76.8373C54.2389 71.8283 57.8574 77.3016 59.7492 81.279C61.7003 90.1008 67.948 97.4279 74.5581 107.139C84.6237 121.93 83.7849 130.947 76.1149 135.277C68.446 139.603 58.3793 137.441 58.3793 137.441C75.7547 138.162 79.4712 124.335 79.4712 124.335C65.4498 121.688 53.4673 127.22 52.3881 133.713C51.3088 140.209 57.4209 146.94 66.528 145.739C75.6362 144.535 85.7007 139.004 85.7007 129.265C85.7007 119.525 82.5859 111.709 69.5242 94.1537C56.4624 76.5971 61.135 73.4705 69.2848 69.5034C83.9045 63.249 87.7395 47.3769 80.5493 28.8597C73.358 10.3402 58.7383 0.720154 58.7383 0.720154C60.1754 3.72669 59.8164 12.7451 51.1891 27.6555C42.5607 42.5658 41.3629 46.1738 42.9208 54.1093C44.4788 62.0471 57.0607 71.6659 57.0607 71.6659C55.8629 68.6605 59.3378 59.2807 63.4121 44.8507C67.4876 30.4207 64.611 19.4787 64.611 19.4787C70.0028 34.6292 66.2886 48.2175 60.7761 65.654C59.3515 70.1632 58.9184 74.1247 59.2238 77.7773C50.7925 65.4024 28.5427 71.0644 28.5427 71.0644C36.8111 66.8559 51.7897 69.8624 51.7897 69.8624C44.5996 60.3614 38.2493 61.2042 29.981 66.6158C21.7127 72.0261 18.9558 70.5829 18.9558 70.5829C31.2973 84.7728 44.3591 84.1712 50.2307 76.8373Z" fill="url(#paint4_linear_3_44)"/>
<path d="M123.926 156.318C125.052 156.318 125.963 155.403 125.964 154.275C125.963 153.147 125.052 152.232 123.926 152.231C123.452 152.231 123.023 152.4 122.674 152.674L120.451 150.353V135.779C121.282 135.518 121.89 134.753 121.89 133.834C121.89 132.706 120.977 131.79 119.852 131.79C118.728 131.79 117.815 132.706 117.815 133.834C117.815 134.839 118.541 135.669 119.493 135.841V150.742L122.074 153.435C121.959 153.694 121.891 153.976 121.891 154.275C121.891 155.404 122.801 156.318 123.926 156.318ZM123.926 153.192C124.522 153.192 125.004 153.677 125.004 154.275C125.004 154.871 124.522 155.355 123.926 155.357C123.331 155.355 122.849 154.87 122.847 154.275C122.849 153.677 123.331 153.192 123.926 153.192ZM118.776 133.832C118.776 133.235 119.257 132.752 119.852 132.752C120.448 132.752 120.93 133.235 120.93 133.832C120.93 134.43 120.448 134.913 119.852 134.913C119.257 134.914 118.776 134.432 118.776 133.832ZM104.394 173.231V136.073L106.94 133.424C107.189 133.532 107.463 133.595 107.749 133.595C108.875 133.592 109.788 132.677 109.788 131.549C109.788 130.42 108.875 129.505 107.749 129.505C106.626 129.505 105.712 130.42 105.712 131.549C105.712 132.038 105.892 132.479 106.177 132.833L103.436 135.684V172.838L98.6416 177.766V192.069C97.7709 192.299 97.1258 193.088 97.1247 194.037C97.1258 195.165 98.0376 196.08 99.1624 196.082C100.288 196.08 101.2 195.165 101.2 194.037C101.2 193.06 100.515 192.245 99.6023 192.044V178.162L104.394 173.231ZM107.749 130.467C108.346 130.468 108.827 130.95 108.827 131.547C108.827 132.144 108.346 132.63 107.749 132.63C107.154 132.63 106.672 132.144 106.672 131.547C106.672 130.95 107.154 130.468 107.749 130.467ZM100.242 194.036C100.239 194.634 99.7585 195.119 99.1624 195.119C98.5687 195.119 98.0843 194.634 98.0843 194.036C98.0843 193.438 98.5687 192.957 99.1624 192.954C99.7573 192.957 100.239 193.438 100.242 194.036ZM130.479 174.037C130.026 174.037 129.613 174.19 129.276 174.439L126.858 172.432H112.813C112.612 171.515 111.8 170.831 110.826 170.83C109.7 170.831 108.789 171.746 108.789 172.874C108.789 174.004 109.7 174.919 110.826 174.919C111.772 174.919 112.558 174.27 112.787 173.395H126.511L128.661 175.176C128.524 175.452 128.441 175.755 128.441 176.081C128.442 177.209 129.352 178.124 130.479 178.125C131.604 178.124 132.515 177.209 132.515 176.081C132.515 174.948 131.604 174.037 130.479 174.037ZM110.826 173.957C110.231 173.953 109.749 173.471 109.747 172.873C109.749 172.276 110.231 171.793 110.826 171.793C111.422 171.793 111.904 172.276 111.904 172.873C111.903 173.472 111.422 173.953 110.826 173.957ZM130.479 177.161C129.885 177.161 129.4 176.675 129.4 176.079C129.4 175.482 129.885 174.999 130.479 174.996C131.074 174.999 131.556 175.482 131.558 176.079C131.556 176.675 131.074 177.161 130.479 177.161ZM129.439 154.995C130.565 154.995 131.476 154.08 131.478 152.953C131.476 151.824 130.565 150.909 129.439 150.909C129.028 150.909 128.648 151.032 128.328 151.243L123.328 146.96V142.815C124.282 142.643 125.006 141.815 125.006 140.807C125.006 139.68 124.095 138.762 122.97 138.762C121.844 138.762 120.934 139.68 120.931 140.807C120.934 141.726 121.541 142.494 122.371 142.752V147.401L127.677 151.952C127.507 152.247 127.403 152.586 127.403 152.953C127.402 154.08 128.314 154.995 129.439 154.995ZM129.439 151.87C130.036 151.87 130.517 152.355 130.517 152.953C130.517 153.548 130.036 154.033 129.439 154.035C128.845 154.033 128.363 153.548 128.361 152.953C128.362 152.355 128.844 151.87 129.439 151.87ZM121.891 140.807C121.891 140.209 122.374 139.724 122.97 139.724C123.564 139.724 124.046 140.209 124.048 140.807C124.046 141.405 123.564 141.888 122.97 141.889C122.374 141.888 121.891 141.405 121.891 140.807ZM126.443 147.541C126.444 148.671 127.356 149.586 128.48 149.586C129.606 149.586 130.517 148.671 130.517 147.541C130.517 146.624 129.911 145.856 129.08 145.597V136.068L131.69 133.263C132.008 133.47 132.386 133.595 132.794 133.595C133.919 133.592 134.832 132.677 134.832 131.549C134.832 130.42 133.919 129.505 132.794 129.505C131.67 129.505 130.756 130.42 130.756 131.549C130.756 131.917 130.862 132.259 131.032 132.558L128.121 135.687V145.533C127.169 145.703 126.445 146.536 126.443 147.541ZM132.794 130.467C133.39 130.468 133.872 130.95 133.872 131.547C133.872 132.144 133.39 132.63 132.794 132.63C132.199 132.63 131.717 132.144 131.717 131.547C131.717 130.95 132.199 130.468 132.794 130.467ZM128.48 146.459C129.074 146.461 129.557 146.946 129.56 147.541C129.557 148.138 129.075 148.624 128.48 148.624C127.887 148.624 127.402 148.138 127.402 147.541C127.402 146.945 127.887 146.46 128.48 146.459ZM133.033 145.498C131.907 145.498 130.997 146.413 130.997 147.541C130.997 148.459 131.604 149.228 132.434 149.485V153.84L128.877 157.521H123.384C123.168 156.627 122.37 155.96 121.411 155.96C120.285 155.96 119.374 156.875 119.374 158.004C119.374 159.132 120.285 160.047 121.411 160.048C122.37 160.047 123.168 159.382 123.384 158.485H129.283L133.394 154.23V149.549C134.346 149.38 135.071 148.547 135.071 147.541C135.072 146.412 134.159 145.498 133.033 145.498ZM121.411 159.083C120.816 159.083 120.334 158.599 120.332 158.002C120.334 157.404 120.816 156.922 121.411 156.921C122.005 156.922 122.489 157.405 122.489 158.002C122.489 158.599 122.005 159.083 121.411 159.083ZM133.033 148.624C132.439 148.624 131.958 148.138 131.954 147.541C131.956 146.945 132.439 146.461 133.033 146.459C133.629 146.461 134.112 146.946 134.112 147.541C134.113 148.138 133.631 148.624 133.033 148.624ZM113.558 169.546H127.35C127.488 170.54 128.33 171.311 129.359 171.311C130.484 171.311 131.398 170.396 131.398 169.268C131.398 168.137 130.485 167.223 129.359 167.221C128.475 167.223 127.728 167.792 127.448 168.585H113.923L110.866 165.843V138.822C111.757 138.605 112.423 137.801 112.423 136.839C112.423 135.71 111.512 134.796 110.386 134.796C109.261 134.796 108.349 135.71 108.349 136.839C108.349 137.802 109.015 138.605 109.905 138.822V166.274L113.558 169.546ZM129.359 168.185C129.956 168.185 130.437 168.668 130.437 169.268C130.437 169.864 129.956 170.346 129.359 170.349C128.764 170.346 128.282 169.864 128.282 169.268C128.282 168.667 128.764 168.185 129.359 168.185ZM109.308 136.838C109.31 136.242 109.792 135.758 110.386 135.756C110.981 135.758 111.463 136.242 111.464 136.838C111.463 137.436 110.981 137.92 110.386 137.92C109.791 137.921 109.31 137.437 109.308 136.838ZM127.124 180.931C126.878 180.931 126.647 180.981 126.427 181.06L121.135 175.558H110.191L105.712 179.922V187.244C104.822 187.462 104.156 188.263 104.156 189.224C104.156 190.354 105.068 191.268 106.193 191.268C107.319 191.268 108.23 190.354 108.23 189.224C108.23 188.262 107.565 187.462 106.673 187.244V180.329L110.582 176.517H120.73L125.621 181.603C125.294 181.966 125.087 182.441 125.087 182.971C125.087 184.101 125.999 185.014 127.125 185.017C128.25 185.014 129.162 184.101 129.162 182.971C129.161 181.843 128.249 180.931 127.124 180.931ZM107.271 189.226C107.27 189.824 106.788 190.307 106.193 190.309C105.599 190.307 105.117 189.824 105.114 189.226C105.116 188.63 105.598 188.144 106.193 188.144C106.788 188.144 107.269 188.629 107.271 189.226ZM127.124 184.056C126.527 184.056 126.045 183.572 126.045 182.973C126.045 182.375 126.527 181.893 127.124 181.891C127.719 181.893 128.2 182.376 128.202 182.973C128.2 183.573 127.719 184.056 127.124 184.056ZM32.8541 102.69C33.7704 102.69 34.534 102.08 34.7916 101.247H50.4928L52.6912 103.74C52.4302 104.083 52.2673 104.507 52.2673 104.975C52.2673 106.103 53.179 107.018 54.305 107.019C55.431 107.019 56.3416 106.103 56.3427 104.975C56.3427 103.846 55.431 102.93 54.305 102.93C53.9927 102.93 53.6998 103.005 53.4354 103.131L50.9247 100.285H34.8554C34.6856 99.3275 33.8582 98.6002 32.8541 98.6002C31.7293 98.6002 30.8175 99.5151 30.8175 100.645C30.8175 101.774 31.7293 102.69 32.8541 102.69ZM54.305 103.893C54.8999 103.893 55.382 104.377 55.3831 104.975C55.382 105.572 54.8999 106.055 54.305 106.058C53.7089 106.057 53.2269 105.572 53.2269 104.975C53.2269 104.377 53.7089 103.893 54.305 103.893ZM32.8541 99.5631C33.4502 99.5631 33.9322 100.047 33.9334 100.645C33.9322 101.242 33.449 101.726 32.8541 101.727C32.2592 101.725 31.7771 101.242 31.7771 100.645C31.7771 100.047 32.2592 99.5643 32.8541 99.5631ZM120.332 118.202C120.586 118.202 120.826 118.15 121.05 118.064L125.365 122.719V132.092C124.473 132.309 123.808 133.112 123.808 134.073C123.808 135.201 124.72 136.117 125.844 136.117C126.97 136.117 127.881 135.201 127.883 134.073C127.881 133.111 127.219 132.309 126.324 132.092V122.34L121.849 117.512C122.169 117.151 122.371 116.678 122.371 116.157C122.368 115.028 121.459 114.113 120.333 114.113C119.208 114.113 118.296 115.028 118.296 116.157C118.295 117.287 119.207 118.2 120.332 118.202ZM126.923 134.073C126.923 134.671 126.438 135.154 125.843 135.154C125.25 135.154 124.767 134.671 124.765 134.073C124.767 133.476 125.25 132.993 125.843 132.991C126.438 132.993 126.923 133.476 126.923 134.073ZM120.332 115.075C120.926 115.076 121.411 115.559 121.411 116.157C121.411 116.754 120.927 117.239 120.332 117.24C119.737 117.239 119.255 116.754 119.254 116.157C119.255 115.559 119.736 115.076 120.332 115.075ZM113.262 109.601V116.598L121.352 124.6C121.165 124.909 121.051 125.268 121.051 125.656C121.051 126.784 121.963 127.699 123.088 127.699C124.214 127.699 125.124 126.784 125.126 125.656C125.124 124.527 124.214 123.612 123.088 123.612C122.7 123.612 122.339 123.727 122.029 123.917L114.22 116.196V109.601C115.113 109.384 115.777 108.583 115.779 107.62C115.778 106.491 114.866 105.575 113.741 105.575C112.615 105.575 111.703 106.49 111.703 107.62C111.705 108.583 112.369 109.384 113.262 109.601ZM123.088 124.574C123.684 124.575 124.167 125.059 124.167 125.656C124.167 126.253 123.684 126.736 123.088 126.739C122.494 126.737 122.012 126.254 122.009 125.656C122.012 125.059 122.493 124.576 123.088 124.574ZM113.741 106.537C114.337 106.538 114.819 107.023 114.819 107.62C114.819 108.217 114.337 108.701 113.741 108.702C113.146 108.701 112.664 108.218 112.662 107.62C112.664 107.023 113.146 106.538 113.741 106.537ZM128.48 160.891C127.566 160.891 126.801 161.498 126.543 162.332H121.037L117.334 157.831V129.227C118.288 129.057 119.013 128.225 119.013 127.22C119.013 126.09 118.103 125.176 116.977 125.176C115.851 125.176 114.939 126.09 114.939 127.22C114.939 128.138 115.546 128.906 116.377 129.163V158.176L120.585 163.294H126.479C126.649 164.251 127.479 164.977 128.48 164.977C129.606 164.977 130.517 164.064 130.517 162.934C130.517 161.803 129.608 160.891 128.48 160.891ZM115.898 127.22C115.9 126.622 116.382 126.138 116.977 126.138C117.57 126.139 118.052 126.622 118.055 127.22C118.052 127.817 117.57 128.301 116.977 128.302C116.382 128.301 115.9 127.817 115.898 127.22ZM128.48 164.015C127.887 164.015 127.402 163.529 127.402 162.933C127.402 162.337 127.887 161.853 128.48 161.851C129.074 161.853 129.557 162.337 129.56 162.933C129.557 163.529 129.075 164.015 128.48 164.015ZM76.8329 97.1581C77.7788 97.1581 78.5652 96.5086 78.7954 95.6349H85.6927C85.9616 96.448 86.7172 97.0381 87.6176 97.0381C88.7424 97.0381 89.6542 96.1232 89.6553 94.9944C89.6542 93.8646 88.7424 92.9497 87.6176 92.9485C86.6021 92.9497 85.7679 93.6964 85.6129 94.6719H78.8193C78.6176 93.7559 77.8073 93.0686 76.8329 93.0686C75.7069 93.0686 74.7963 93.9835 74.7963 95.1122C74.7963 96.2433 75.7069 97.1581 76.8329 97.1581ZM87.6176 93.9114C88.2125 93.9126 88.6957 94.3952 88.6957 94.9944C88.6957 95.5914 88.2136 96.0751 87.6176 96.0763C87.0227 96.0751 86.5406 95.5914 86.5394 94.9944C86.5406 94.3963 87.0227 93.9126 87.6176 93.9114ZM76.8329 94.0315C77.4289 94.0327 77.9099 94.5153 77.911 95.1134C77.9099 95.7115 77.4289 96.1952 76.8329 96.1964C76.238 96.1952 75.757 95.7115 75.7536 95.1134C75.757 94.5153 76.238 94.0327 76.8329 94.0315ZM108.708 108.481V117.903L112.388 122.03C112.187 122.348 112.062 122.723 112.062 123.131C112.062 124.259 112.975 125.175 114.101 125.175C115.225 125.174 116.138 124.259 116.138 123.131C116.138 122.002 115.225 121.086 114.101 121.086C113.73 121.086 113.384 121.193 113.086 121.368L109.666 117.535V108.543C110.62 108.372 111.343 107.541 111.346 106.536C111.343 105.407 110.433 104.492 109.307 104.492C108.182 104.492 107.27 105.407 107.27 106.536C107.271 107.455 107.877 108.222 108.708 108.481ZM114.101 122.049C114.696 122.05 115.177 122.534 115.177 123.131C115.177 123.727 114.696 124.212 114.101 124.212C113.505 124.211 113.023 123.727 113.023 123.131C113.023 122.534 113.505 122.05 114.101 122.049ZM109.308 105.455C109.903 105.456 110.386 105.94 110.386 106.537C110.386 107.134 109.903 107.618 109.308 107.62C108.713 107.619 108.231 107.135 108.23 106.537C108.231 105.94 108.713 105.456 109.308 105.455ZM83.5432 100.645C84.6692 100.645 85.581 99.7301 85.581 98.6002C85.581 97.4715 84.6692 96.5566 83.5432 96.5566C82.4184 96.5566 81.5067 97.4715 81.5067 98.6002C81.5067 98.9593 81.6058 99.2898 81.7676 99.5826L80.2439 101.11C79.918 100.893 79.5293 100.765 79.1099 100.765C77.9839 100.765 77.0711 101.68 77.0711 102.81C77.0711 103.939 77.9839 104.853 79.1099 104.855C80.2336 104.855 81.1465 103.939 81.1465 102.81C81.1465 102.452 81.0485 102.12 80.8855 101.827L82.4093 100.3C82.7329 100.518 83.1227 100.645 83.5432 100.645ZM83.5432 97.5195C84.1393 97.5207 84.6214 98.0044 84.6225 98.6014C84.6214 99.1995 84.1393 99.6821 83.5432 99.6844C82.9472 99.6821 82.4663 99.1983 82.4651 98.6014C82.4663 98.0033 82.9472 97.5207 83.5432 97.5195ZM79.1111 103.893C78.515 103.891 78.0329 103.407 78.0318 102.81C78.0329 102.213 78.5139 101.729 79.1111 101.728C79.706 101.729 80.1892 102.213 80.1892 102.81C80.1881 103.407 79.706 103.891 79.1111 103.893ZM100.56 220.66V217.207L86.0608 202.414V176.355L93.8493 168.296V142.897C94.4556 141.753 94.9764 140.56 95.4084 139.323V170.428L87.499 178.364V199.921L97.2888 210.091C97.086 210.409 96.964 210.783 96.964 211.19C96.9663 212.32 97.8769 213.232 99.0017 213.232C100.129 213.232 101.038 212.32 101.038 211.19C101.038 210.06 100.128 209.147 99.0017 209.147C98.6279 209.147 98.2849 209.254 97.9829 209.43L88.4564 199.532V178.762L96.3657 170.828V135.778C96.6779 134.174 96.8455 132.52 96.8455 130.826C96.8455 128.989 96.6506 127.196 96.2848 125.468V112.751L104.062 105.097C104.343 105.243 104.656 105.334 104.992 105.334C106.118 105.334 107.031 104.42 107.031 103.29C107.031 102.161 106.118 101.247 104.992 101.245C103.869 101.245 102.955 102.16 102.955 103.29C102.955 103.729 103.099 104.134 103.332 104.468L95.3274 112.347V122.098C94.6174 120.125 93.6726 118.266 92.5307 116.551V107.061L98.4946 101.22C98.7863 101.386 99.1203 101.487 99.4793 101.487C100.604 101.487 101.517 100.572 101.517 99.4419C101.517 98.312 100.604 97.3972 99.4793 97.3972C98.3567 97.3972 97.4427 98.312 97.4427 99.4419C97.4427 99.8593 97.5692 100.247 97.7823 100.571L91.5722 106.655V115.206C90.4622 113.754 89.204 112.422 87.817 111.237V104.086L92.3723 99.3722C92.7153 99.6375 93.1404 99.8033 93.6088 99.8033C94.7337 99.8033 95.6454 98.8884 95.6454 97.7597C95.6454 96.6298 94.7348 95.7161 93.6088 95.7149C92.484 95.7149 91.5722 96.6298 91.5722 97.7597C91.5722 98.0673 91.644 98.3566 91.766 98.6185L86.8574 103.697V110.458C85.9012 109.718 84.8926 109.04 83.8373 108.439C84.4664 109.819 85.0396 111.184 85.5502 112.481C86.2819 113.059 86.9805 113.672 87.6381 114.332C91.8469 118.557 94.4476 124.382 94.4476 130.827C94.4476 137.273 91.848 143.096 87.6381 147.321C83.4281 151.543 77.6238 154.154 71.2006 154.154C64.7774 154.154 58.9731 151.545 54.762 147.321C50.5532 143.096 47.9536 137.273 47.9536 130.827C47.9536 124.38 50.5532 118.557 54.762 114.332C58.6813 110.4 63.9831 107.871 69.8786 107.54C69.3304 106.721 68.7868 105.957 68.2739 105.266C67.1479 105.396 66.0459 105.601 64.97 105.87V100.818L58.2517 93.5146C58.4819 93.183 58.6186 92.7816 58.6186 92.3481C58.6175 91.2194 57.7069 90.3034 56.5809 90.3034C55.4561 90.3034 54.5443 91.2183 54.5443 92.3481C54.5443 93.4769 55.4561 94.3929 56.5809 94.3929C56.9251 94.3929 57.2442 94.2991 57.528 94.147L64.0104 101.194V106.132C62.5972 106.545 61.2365 107.077 59.9361 107.715V103.331L51.3874 94.752H44.3785C44.1209 93.9183 43.3573 93.3099 42.441 93.3088C41.3162 93.3099 40.4044 94.2236 40.4044 95.3535C40.4044 96.4823 41.3162 97.3972 42.441 97.3972C43.4439 97.3972 44.2713 96.671 44.4423 95.7138H50.9908L58.9788 103.728V108.211C57.0721 109.251 55.309 110.52 53.7329 111.992L47.5354 106.536H25.6012C25.3847 105.639 24.5869 104.974 23.6273 104.972C22.5013 104.972 21.5896 105.887 21.5896 107.017C21.5896 108.146 22.5013 109.061 23.6273 109.061C24.5869 109.061 25.3847 108.394 25.6012 107.497H47.1729L53.0422 112.664C51.4798 114.236 50.1213 116.009 49.0055 117.943L43.6183 111.707H20.2551C19.9622 110.934 19.2259 110.384 18.3541 110.384C17.2292 110.384 16.3164 111.299 16.3164 112.429C16.3164 113.557 17.2292 114.472 18.3541 114.473C19.3969 114.472 20.2471 113.684 20.3679 112.67H43.1807L48.5109 118.841C46.6282 122.42 45.5569 126.496 45.5569 130.826C45.5569 130.986 45.5649 131.146 45.5683 131.307H43.9978V120.448C44.9506 120.277 45.6754 119.446 45.6754 118.441C45.6754 117.312 44.7648 116.396 43.6377 116.396C42.5128 116.396 41.6011 117.311 41.6011 118.441C41.6011 119.359 42.2085 120.126 43.0382 120.385V132.27H45.5979C45.6936 134.005 45.9592 135.692 46.3809 137.32H39.0847V122.691L33.5311 117.119H16.2822C16.1123 116.163 15.2838 115.435 14.2809 115.435C13.156 115.435 12.2443 116.35 12.2443 117.48C12.2443 118.61 13.156 119.524 14.2809 119.524C15.1949 119.524 15.9619 118.915 16.2183 118.082H33.1356L38.1274 123.089V138.282H46.6532C46.9644 139.314 47.3416 140.317 47.7724 141.286H35.4913V124.976L32.3344 121.809H12.6865C12.5167 120.852 11.6893 120.125 10.6852 120.125C9.56038 120.125 8.64865 121.04 8.64865 122.169C8.64865 123.297 9.56038 124.214 10.6852 124.214C11.6015 124.214 12.3663 123.604 12.6227 122.77H31.9378L34.5328 125.374V141.286H29.9787V132.077L25.7517 127.58H14.6182C14.3812 126.716 13.5994 126.078 12.6626 126.078C11.5366 126.078 10.626 126.991 10.6248 128.121C10.6248 129.25 11.5366 130.165 12.6626 130.165C13.6438 130.165 14.4621 129.468 14.6558 128.542H25.338L29.0191 132.46V141.286H20.3519L8.04576 128.822C8.23495 128.512 8.35005 128.151 8.35005 127.761C8.35005 126.631 7.43832 125.716 6.31232 125.716C5.18747 125.716 4.27459 126.631 4.27459 127.761C4.27459 128.89 5.18747 129.805 6.31232 129.806C6.69981 129.806 7.05881 129.69 7.36652 129.502L19.953 142.25H48.2226C48.8916 143.604 49.6745 144.892 50.5635 146.099H18.5581L6.44908 133.6C6.58698 133.326 6.67132 133.019 6.67132 132.691C6.67018 131.561 5.75958 130.646 4.63359 130.646C3.50873 130.647 2.59699 131.561 2.59699 132.691C2.59699 133.819 3.50873 134.734 4.63359 134.734C5.08148 134.734 5.49176 134.585 5.82682 134.339L18.1512 147.057H35.8788L28.9428 153.913H16.0314L4.31904 142.621C4.47631 142.33 4.57432 142.002 4.57432 141.649C4.57432 140.519 3.66259 139.602 2.53773 139.602C1.41288 139.602 0.5 140.52 0.5 141.65C0.5 142.778 1.41174 143.693 2.53773 143.693C2.96169 143.693 3.35601 143.563 3.68082 143.339L15.6451 154.876H29.3359L37.2464 147.057H51.188V146.907C51.8741 147.766 52.6149 148.581 53.4035 149.344H41.7584L31.9321 159.567H12.2078L6.70551 153.823C6.86962 153.528 6.97105 153.192 6.97105 152.831C6.97105 151.706 6.05931 150.789 4.93218 150.789C3.80846 150.789 2.89559 151.706 2.89559 152.831C2.89559 153.96 3.80732 154.877 4.93218 154.877C5.3493 154.877 5.73451 154.75 6.05703 154.536L11.7998 160.526H32.3378L42.1652 150.307H53.8252V154.517H43.3254L33.7385 163.895H13.0649C12.7731 163.123 12.0357 162.572 11.165 162.572C10.039 162.572 9.12731 163.487 9.12617 164.617C9.12731 165.745 10.039 166.66 11.165 166.663C12.2078 166.66 13.0569 165.872 13.1777 164.857H34.1283L43.7152 155.478H54.7837V150.592C56.1137 151.707 57.5588 152.689 59.0973 153.518V159.445H48.9611L39.495 168.345H23.7664C23.5088 167.512 22.7452 166.902 21.8289 166.901C20.7041 166.902 19.7923 167.817 19.7912 168.947C19.7923 170.074 20.7029 170.989 21.8289 170.989C22.8318 170.989 23.6592 170.263 23.8302 169.306H39.8733L49.3394 160.407H60.0558V154.007C61.3185 154.621 62.6428 155.127 64.0093 155.527V164.015H50.1498L39.8574 174.461C39.5337 174.244 39.1451 174.117 38.7257 174.117C37.6008 174.117 36.6891 175.032 36.6891 176.158C36.6891 177.288 37.6008 178.203 38.7257 178.203C39.8517 178.203 40.7634 177.288 40.7634 176.158C40.7634 175.801 40.6631 175.468 40.5013 175.175L50.5498 164.976H64.97V155.792C66.479 156.167 68.0414 156.411 69.6438 156.509V163.35L65.7142 167.741H54.4554L47.4362 175.374C47.1308 175.19 46.7786 175.079 46.3957 175.079C45.2708 175.079 44.3591 175.994 44.3591 177.121C44.3591 178.25 45.2708 179.166 46.3957 179.166C47.5228 179.166 48.4334 178.25 48.4346 177.121C48.4346 176.724 48.316 176.36 48.1223 176.047L54.876 168.704H66.1439L70.6034 163.719V156.545C70.8029 156.549 71.0012 156.563 71.2029 156.563C72.2172 156.563 73.2144 156.495 74.1979 156.381V164.715L66.8744 171.833H61.5123C61.3185 170.906 60.4991 170.21 59.519 170.21C58.3941 170.21 57.4813 171.125 57.4813 172.254C57.4813 173.382 58.393 174.297 59.519 174.298C60.4558 174.297 61.2365 173.661 61.4747 172.795H67.2631L75.1576 165.121V156.255C77.4722 155.896 79.682 155.22 81.7483 154.282V162.294L71.7625 172.315V176.438C70.8599 176.648 70.1852 177.454 70.1852 178.425C70.1852 179.553 71.0969 180.467 72.2229 180.467C73.3489 180.467 74.2595 179.553 74.2595 178.425C74.2595 177.469 73.6042 176.675 72.7221 176.449V172.71L82.709 162.689V153.821C84.0572 153.141 85.3428 152.351 86.544 151.451V162.608L77.1964 171.746V184.962C76.2721 185.155 75.5781 185.975 75.5781 186.962C75.5781 188.09 76.491 189.004 77.6158 189.004C78.7407 189.004 79.6536 188.09 79.6536 186.962C79.6536 186.021 79.0165 185.236 78.1549 184.998V172.153L87.5025 163.016V150.695C89.6109 148.952 91.4309 146.876 92.8954 144.548V167.908L85.1057 175.964V202.812L99.6058 217.602V220.752C98.8057 221.026 98.229 221.778 98.2268 222.677C98.229 223.805 99.1396 224.72 100.264 224.72C101.39 224.72 102.301 223.805 102.301 222.677C102.298 221.647 101.542 220.807 100.56 220.66ZM99.0017 210.108C99.5966 210.111 100.079 210.593 100.081 211.191C100.08 211.787 99.5978 212.27 99.0017 212.273C98.4057 212.27 97.9248 211.787 97.9248 211.191C97.9248 210.592 98.4057 210.111 99.0017 210.108ZM104.993 102.208C105.59 102.211 106.072 102.693 106.072 103.291C106.072 103.889 105.59 104.372 104.993 104.373C104.399 104.372 103.917 103.889 103.917 103.291C103.916 102.693 104.398 102.211 104.993 102.208ZM99.4804 98.3612C100.078 98.3612 100.56 98.8449 100.56 99.4431C100.56 100.04 100.078 100.524 99.4804 100.526C98.8855 100.525 98.4034 100.041 98.4034 99.4431C98.4034 98.8449 98.8855 98.3612 99.4804 98.3612ZM93.61 96.6767C94.2037 96.679 94.6892 97.1616 94.6892 97.7597C94.6892 98.3566 94.2049 98.8404 93.61 98.8415C93.015 98.8404 92.533 98.3566 92.5318 97.7597C92.533 97.1616 93.0139 96.679 93.61 96.6767ZM56.5809 93.43C55.986 93.43 55.5039 92.9451 55.5017 92.3481C55.5039 91.75 55.986 91.2663 56.5809 91.2663C57.1758 91.2663 57.6579 91.7489 57.659 92.3481C57.6579 92.9462 57.177 93.43 56.5809 93.43ZM42.441 96.4365C41.8461 96.4354 41.364 95.9516 41.3629 95.3547C41.364 94.7566 41.8473 94.274 42.441 94.2717C43.0371 94.2728 43.5192 94.7566 43.5192 95.3547C43.5192 95.9516 43.0371 96.4354 42.441 96.4365ZM23.6273 108.1C23.0313 108.099 22.5492 107.615 22.5492 107.018C22.5492 106.42 23.0313 105.938 23.6273 105.935C24.2222 105.936 24.7043 106.42 24.7055 107.018C24.7043 107.616 24.2222 108.1 23.6273 108.1ZM18.3541 113.512C17.7592 113.511 17.2771 113.026 17.276 112.429C17.2771 111.832 17.758 111.348 18.3541 111.347C18.9501 111.347 19.4322 111.831 19.4322 112.429C19.4322 113.027 18.9501 113.511 18.3541 113.512ZM42.5607 118.442C42.5618 117.845 43.0439 117.361 43.6388 117.36C44.2337 117.361 44.7158 117.845 44.7181 118.442C44.7169 119.039 44.2337 119.522 43.6388 119.524C43.0439 119.522 42.563 119.039 42.5607 118.442ZM14.2809 118.562C13.686 118.561 13.2039 118.077 13.2028 117.48C13.2039 116.883 13.686 116.399 14.2809 116.398C14.8758 116.4 15.359 116.883 15.359 117.48C15.359 118.077 14.8758 118.561 14.2809 118.562ZM10.6852 123.252C10.0903 123.251 9.60825 122.768 9.60711 122.17C9.60711 121.573 10.0903 121.089 10.6852 121.088C11.2813 121.089 11.7634 121.573 11.7645 122.17C11.7634 122.767 11.2813 123.251 10.6852 123.252ZM12.6626 129.204C12.0677 129.203 11.5856 128.719 11.5844 128.122C11.5856 127.525 12.0677 127.041 12.6626 127.041C13.2586 127.041 13.7396 127.525 13.7407 128.122C13.7407 128.719 13.2586 129.203 12.6626 129.204ZM6.31232 128.843C5.71627 128.843 5.23419 128.358 5.23419 127.761C5.23533 127.163 5.71627 126.679 6.31232 126.679C6.90837 126.68 7.39045 127.163 7.39045 127.761C7.38931 128.358 6.90723 128.843 6.31232 128.843ZM4.63359 133.773C4.03868 133.772 3.5566 133.288 3.55546 132.692C3.55774 132.096 4.03868 131.611 4.63359 131.609C5.22849 131.611 5.71057 132.096 5.71285 132.692C5.71057 133.288 5.22849 133.772 4.63359 133.773ZM2.53773 142.732C1.94282 142.73 1.4596 142.247 1.45846 141.651C1.4596 141.053 1.94282 140.568 2.53773 140.568C3.13378 140.568 3.61472 141.053 3.61586 141.651C3.61358 142.247 3.13264 142.73 2.53773 142.732ZM4.93332 153.914C4.33955 153.914 3.85747 153.43 3.85519 152.831C3.85633 152.235 4.33841 151.753 4.93332 151.753C5.52937 151.753 6.01145 152.235 6.01259 152.831C6.01031 153.43 5.52937 153.914 4.93332 153.914ZM11.165 165.699C10.569 165.699 10.0881 165.213 10.0858 164.617C10.0881 164.019 10.569 163.536 11.165 163.535C11.7599 163.536 12.242 164.019 12.2432 164.617C12.2432 165.213 11.7599 165.699 11.165 165.699ZM21.8301 170.027C21.2352 170.025 20.7531 169.543 20.7519 168.947C20.7542 168.349 21.2352 167.864 21.8301 167.864C22.425 167.864 22.9071 168.349 22.9093 168.947C22.9071 169.543 22.425 170.025 21.8301 170.027ZM38.7268 177.241C38.1319 177.239 37.6498 176.756 37.6487 176.158C37.6487 175.562 38.1308 175.08 38.7268 175.079C39.3217 175.08 39.805 175.564 39.805 176.158C39.8038 176.758 39.3217 177.24 38.7268 177.241ZM46.3957 178.203C45.8008 178.203 45.3198 177.718 45.3176 177.121C45.3187 176.525 45.8008 176.04 46.3957 176.04C46.9917 176.04 47.4738 176.525 47.4749 177.121C47.4727 177.718 46.9906 178.203 46.3957 178.203ZM59.5178 173.334C58.9229 173.334 58.4409 172.849 58.4397 172.252C58.4409 171.656 58.9229 171.171 59.5178 171.169C60.1128 171.171 60.5948 171.656 60.5971 172.252C60.5937 172.85 60.1128 173.334 59.5178 173.334ZM73.2987 178.425C73.2965 179.021 72.8144 179.506 72.2195 179.508C71.6246 179.506 71.1425 179.021 71.1414 178.425C71.1425 177.827 71.6246 177.343 72.2195 177.343C72.8144 177.342 73.2965 177.826 73.2987 178.425ZM78.6894 186.962C78.6894 187.558 78.2073 188.041 77.6113 188.043C77.0164 188.041 76.5343 187.557 76.532 186.962C76.5331 186.363 77.0152 185.879 77.6113 185.879C78.2085 185.879 78.6894 186.363 78.6894 186.962ZM100.261 223.755C99.6662 223.754 99.1818 223.27 99.1818 222.674C99.1818 222.076 99.6662 221.594 100.261 221.591C100.856 221.594 101.338 222.077 101.339 222.674C101.337 223.27 100.856 223.754 100.261 223.755ZM98.0433 137.921C98.0433 139.049 98.9562 139.967 100.081 139.967C101.207 139.967 102.119 139.049 102.119 137.921C102.119 136.958 101.453 136.156 100.56 135.941V114.197C101.512 114.026 102.236 113.194 102.236 112.189C102.236 111.06 101.327 110.145 100.201 110.144C99.0747 110.144 98.1641 111.059 98.1641 112.189C98.1641 113.107 98.7704 113.874 99.6012 114.133V135.94C98.7077 136.156 98.0433 136.958 98.0433 137.921ZM99.1214 112.189C99.1248 111.592 99.6058 111.109 100.201 111.107C100.794 111.109 101.278 111.592 101.279 112.189C101.277 112.785 100.794 113.269 100.201 113.27C99.6058 113.269 99.1248 112.787 99.1214 112.189ZM100.081 136.838C100.676 136.841 101.158 137.324 101.159 137.92C101.158 138.519 100.676 139.001 100.081 139.001C99.485 139.001 99.0017 138.519 99.0017 137.92C99.0017 137.324 99.485 136.841 100.081 136.838ZM106.513 193.756C106.153 193.756 105.819 193.858 105.524 194.021L103.076 191.364V179.112L107.631 174.06V145.953C108.642 145.833 109.427 144.979 109.43 143.933C109.427 142.804 108.517 141.889 107.392 141.889C106.266 141.889 105.354 142.804 105.354 143.933C105.354 144.806 105.902 145.546 106.673 145.839V173.689L102.119 178.739V191.74L104.816 194.671C104.602 194.995 104.476 195.381 104.476 195.797C104.478 196.927 105.387 197.841 106.514 197.842C107.64 197.841 108.551 196.927 108.551 195.797C108.549 194.671 107.638 193.756 106.513 193.756ZM106.312 143.933C106.313 143.337 106.795 142.852 107.39 142.852C107.983 142.852 108.468 143.337 108.468 143.933C108.468 144.53 107.983 145.013 107.39 145.016C106.795 145.015 106.314 144.531 106.312 143.933ZM106.513 196.88C105.916 196.88 105.434 196.396 105.434 195.799C105.434 195.203 105.916 194.719 106.513 194.716C107.108 194.719 107.589 195.203 107.591 195.799C107.588 196.396 107.108 196.88 106.513 196.88ZM100.68 172.516V145.554C101.572 145.339 102.236 144.536 102.236 143.575C102.236 142.446 101.327 141.529 100.201 141.529C99.0747 141.529 98.1641 142.446 98.1641 143.575C98.1641 144.538 98.8296 145.339 99.7197 145.554V172.109L91.5734 180.045V198.002L97.8028 204.369C97.5316 204.715 97.364 205.146 97.364 205.62C97.364 206.75 98.2746 207.665 99.4006 207.665C100.527 207.665 101.439 206.75 101.439 205.62C101.439 204.493 100.527 203.578 99.4006 203.576C99.0986 203.576 98.8137 203.646 98.5561 203.765L92.5307 197.607V180.453L100.68 172.516ZM99.1214 143.574C99.1248 142.975 99.6058 142.492 100.201 142.492C100.794 142.492 101.278 142.975 101.279 143.574C101.277 144.171 100.794 144.654 100.201 144.655C99.6058 144.654 99.1248 144.171 99.1214 143.574ZM99.4006 204.539C99.9978 204.539 100.48 205.024 100.48 205.62C100.48 206.218 99.9978 206.701 99.4006 206.704C98.8057 206.701 98.3248 206.218 98.3225 205.62C98.3236 205.023 98.8057 204.539 99.4006 204.539ZM122.489 179.969C122.179 179.969 121.886 180.043 121.623 180.169L119.325 177.963H111.746L109.307 180.409V184.432C108.539 184.725 107.989 185.466 107.988 186.339C107.989 187.469 108.901 188.385 110.026 188.385C111.152 188.385 112.062 187.469 112.062 186.339C112.062 185.293 111.278 184.44 110.266 184.32V180.807L112.141 178.925H118.941L120.874 180.777C120.613 181.122 120.453 181.545 120.453 182.011C120.453 183.14 121.363 184.055 122.489 184.055C123.615 184.055 124.526 183.14 124.526 182.011C124.526 180.883 123.615 179.969 122.489 179.969ZM111.106 186.34C111.104 186.939 110.622 187.422 110.027 187.422C109.431 187.422 108.949 186.939 108.949 186.34C108.949 185.744 109.431 185.26 110.027 185.26C110.622 185.259 111.104 185.743 111.106 186.34ZM122.489 183.095C121.894 183.093 121.412 182.611 121.411 182.014C121.411 181.76 121.5 181.532 121.646 181.348L121.791 181.197C121.98 181.033 122.22 180.932 122.49 180.932C123.085 180.932 123.567 181.415 123.57 182.014C123.566 182.611 123.084 183.093 122.489 183.095ZM115.419 130.586C115.419 129.457 114.508 128.542 113.382 128.542C112.257 128.542 111.347 129.457 111.347 130.586C111.347 131.592 112.07 132.422 113.023 132.594V162.296L116.903 166.058H122.321C122.59 166.872 123.345 167.463 124.245 167.463C125.371 167.463 126.282 166.549 126.284 165.419C126.282 164.29 125.371 163.375 124.245 163.374C123.23 163.375 122.397 164.121 122.241 165.098H117.29L113.979 161.887V132.531C114.812 132.271 115.419 131.505 115.419 130.586ZM124.247 164.337C124.843 164.337 125.326 164.821 125.326 165.418C125.326 166.015 124.843 166.498 124.247 166.501C123.652 166.498 123.17 166.015 123.168 165.418C123.17 164.821 123.652 164.337 124.247 164.337ZM113.382 131.669C112.787 131.668 112.305 131.184 112.304 130.586C112.306 129.989 112.787 129.505 113.382 129.504C113.977 129.505 114.458 129.989 114.461 130.586C114.458 131.184 113.977 131.668 113.382 131.669ZM101.159 199.089C100.75 199.089 100.372 199.211 100.054 199.417L95.7662 195.545V184.701C96.719 184.529 97.4438 183.699 97.4438 182.693C97.4438 181.564 96.5332 180.649 95.4072 180.649C94.2824 180.649 93.3695 181.564 93.3683 182.693C93.3695 183.612 93.9781 184.379 94.8066 184.637V195.972L99.3983 200.117C99.2274 200.418 99.1214 200.761 99.1214 201.13C99.1214 202.26 100.034 203.175 101.159 203.175C102.284 203.175 103.197 202.26 103.197 201.13C103.197 200.001 102.284 199.089 101.159 199.089ZM94.3291 182.693C94.3291 182.096 94.8112 181.613 95.4084 181.61C96.0021 181.613 96.4842 182.096 96.4865 182.693C96.4842 183.291 96.0021 183.772 95.4084 183.774C94.8112 183.772 94.3291 183.291 94.3291 182.693ZM101.159 202.213C100.563 202.211 100.081 201.727 100.081 201.13C100.081 200.535 100.563 200.05 101.159 200.049C101.754 200.05 102.236 200.535 102.236 201.13C102.236 201.728 101.755 202.211 101.159 202.213ZM106.192 109.905C106.192 108.775 105.279 107.86 104.154 107.86C103.028 107.86 102.118 108.775 102.118 109.905C102.118 110.868 102.782 111.668 103.676 111.885V120.201L108.817 125.474C108.597 125.801 108.468 126.194 108.468 126.619C108.468 127.747 109.381 128.663 110.504 128.663C111.629 128.663 112.543 127.748 112.543 126.619C112.543 125.489 111.63 124.575 110.504 124.574C110.151 124.574 109.824 124.672 109.533 124.832L104.633 119.808V111.885C105.526 111.668 106.192 110.867 106.192 109.905ZM110.504 125.536C111.1 125.537 111.584 126.02 111.584 126.617C111.584 127.214 111.102 127.698 110.504 127.699C109.91 127.698 109.427 127.215 109.427 126.617C109.429 126.02 109.91 125.537 110.504 125.536ZM104.154 110.987C103.559 110.984 103.077 110.502 103.075 109.905C103.077 109.308 103.559 108.823 104.154 108.823C104.75 108.824 105.232 109.308 105.232 109.905C105.232 110.502 104.75 110.984 104.154 110.987Z" fill="url(#paint5_linear_3_44)"/>
<path d="M160.375 152.202H165.769V175.013H160.466L160.189 171.681C158.898 174.365 155.347 175.661 152.811 175.706C146.079 175.753 141.099 171.588 141.099 163.583C141.099 155.716 146.309 151.599 152.949 151.646C155.992 151.646 158.898 153.08 160.189 155.347L160.375 152.202ZM146.725 163.584C146.725 167.934 149.723 170.525 153.457 170.525C162.312 170.525 162.312 156.689 153.457 156.689C149.723 156.69 146.725 159.235 146.725 163.584Z" fill="url(#paint6_linear_3_44)"/>
<path d="M185.641 175.013V162.796C185.641 159.79 184.072 157.059 180.983 157.059C177.939 157.059 176.14 159.79 176.14 162.796V175.013H170.515V152.155H175.724L176.139 154.933C177.338 152.618 179.966 151.786 182.135 151.786C184.855 151.786 187.576 152.896 188.867 156.043C190.895 152.803 193.525 151.877 196.477 151.877C202.932 151.877 206.113 155.857 206.113 162.706V175.015H200.487V162.706C200.487 159.697 199.243 157.154 196.199 157.154C193.156 157.154 191.265 159.792 191.265 162.799V175.016H185.641V175.013Z" fill="url(#paint7_linear_3_44)"/>
<path d="M217.451 142.669V155.302C218.788 152.942 222.524 151.647 224.923 151.647C231.563 151.647 236.496 155.719 236.496 163.584C236.496 171.082 231.469 175.522 224.784 175.522C222.017 175.522 219.204 174.596 217.451 171.866L217.083 175.013H211.826V142.669H217.451V142.669ZM217.82 163.584C217.82 167.702 220.863 170.294 224.413 170.294C228.011 170.294 230.87 167.563 230.87 163.584C230.87 159.467 228.011 156.922 224.413 156.922C220.863 156.922 217.82 159.606 217.82 163.584Z" fill="url(#paint8_linear_3_44)"/>
<path d="M246.775 145.77C246.775 150.166 240.135 150.166 240.135 145.77C240.135 141.373 246.775 141.373 246.775 145.77ZM240.642 152.109V175.013H246.268V152.109H240.642Z" fill="url(#paint9_linear_3_44)"/>
<path d="M256.134 165.62C256.502 168.442 258.948 170.479 262.913 170.479C264.987 170.479 267.708 169.692 268.999 168.351L272.595 171.913C270.198 174.412 266.278 175.615 262.82 175.615C254.982 175.615 250.323 170.756 250.323 163.445C250.323 156.504 255.026 151.508 262.405 151.508C270.015 151.508 274.764 156.227 273.888 165.62H256.134V165.62ZM268.492 160.946C268.124 157.985 265.818 156.504 262.59 156.504C259.547 156.504 257.057 157.985 256.226 160.946H268.492Z" fill="url(#paint10_linear_3_44)"/>
<path d="M294.957 175.013V163.075C294.957 159.604 293.067 156.966 289.469 156.966C286.013 156.966 283.66 159.881 283.66 163.352V175.012H278.079V152.154H283.106L283.476 155.254C285.78 152.988 288.087 151.831 290.945 151.831C296.295 151.831 300.583 155.856 300.583 163.028V175.012H294.957V175.013Z" fill="url(#paint11_linear_3_44)"/>
<path d="M312.383 145.77V152.248H318.655V157.107H312.338V166.961C312.338 169.136 313.537 170.2 315.288 170.2C316.165 170.2 317.179 169.923 318.01 169.507L319.577 174.32C317.963 174.968 316.626 175.246 314.92 175.291C309.985 175.477 306.758 172.654 306.758 166.962V157.108H302.516V152.248H306.758V146.371L312.383 145.77Z" fill="url(#paint12_linear_3_44)"/>
<path d="M327.642 165.62C328.013 168.442 330.456 170.479 334.421 170.479C336.496 170.479 339.218 169.692 340.508 168.351L344.104 171.913C341.707 174.412 337.787 175.615 334.33 175.615C326.49 175.615 321.832 170.756 321.832 163.445C321.832 156.504 326.537 151.508 333.915 151.508C341.524 151.508 346.273 156.227 345.396 165.62H327.642V165.62ZM340.001 160.946C339.633 157.985 337.326 156.504 334.099 156.504C331.056 156.504 328.566 157.985 327.735 160.946H340.001Z" fill="url(#paint13_linear_3_44)"/>
<path d="M240.135 145.77C240.135 150.166 246.775 150.166 246.775 145.77C246.775 141.373 240.135 141.373 240.135 145.77ZM68.2739 105.265C67.148 105.394 66.0459 105.6 64.97 105.869V100.816L58.2517 93.5133C58.4819 93.1817 58.6187 92.7803 58.6187 92.3468C58.6175 91.2181 57.7069 90.3021 56.5809 90.3021C55.4561 90.3021 54.5443 91.217 54.5443 92.3468C54.5443 93.4756 55.4561 94.3916 56.5809 94.3916C56.9251 94.3916 57.2442 94.2978 57.528 94.1457L64.0104 101.193V106.131C62.5973 106.544 61.2365 107.075 59.9361 107.713V103.33L51.3874 94.7507H44.3785C44.1209 93.917 43.3573 93.3086 42.441 93.3075C41.3162 93.3086 40.4044 94.2224 40.4044 95.3522C40.4044 96.481 41.3162 97.3959 42.441 97.3959C43.4439 97.3959 44.2713 96.6697 44.4423 95.7125H50.9908L58.9788 103.727V108.21C57.0721 109.249 55.3091 110.519 53.7329 111.991L47.5354 106.534H33.2462C33.6052 106.856 33.9676 107.177 34.3334 107.496H47.1741L53.0434 112.663C51.4809 114.234 50.1224 116.008 49.0067 117.942L43.6194 111.706H39.4186C39.83 112.028 40.254 112.347 40.6723 112.668H43.1818L47.3177 117.457C48.4414 118.219 49.5833 118.977 50.7492 119.725C51.8239 117.735 53.179 115.919 54.762 114.329C58.6813 110.397 63.9831 107.869 69.8786 107.537C69.3304 106.72 68.7857 105.956 68.2739 105.265ZM56.5809 93.4298C55.986 93.4298 55.5039 92.9449 55.5017 92.348C55.5039 91.7499 55.986 91.2661 56.5809 91.2661C57.1758 91.2661 57.6579 91.7487 57.6591 92.348C57.6579 92.9461 57.177 93.4298 56.5809 93.4298ZM42.441 96.4364C41.8461 96.4352 41.364 95.9515 41.3629 95.3545C41.364 94.7564 41.8473 94.2738 42.441 94.2715C43.0371 94.2727 43.5192 94.7564 43.5192 95.3545C43.5192 95.9515 43.0371 96.4352 42.441 96.4364ZM238.105 114.373C235.524 114.373 232.48 115.483 230.727 118.029L230.359 114.882H225.103V147.226H230.728V135.01C232.342 137.509 235.892 138.249 238.291 138.249C245.578 138.249 249.773 132.975 249.773 126.311C249.772 119.601 245.114 114.373 238.105 114.373ZM237.691 132.788C233.864 132.788 231.234 129.873 231.234 126.311C231.234 122.747 233.633 119.832 237.691 119.832C241.749 119.832 244.146 122.747 244.146 126.311C244.147 129.873 241.518 132.788 237.691 132.788ZM290.944 151.833C288.086 151.833 285.78 152.989 283.475 155.255L283.105 152.155H278.078V162.817C279.976 162.676 281.863 162.523 283.744 162.359C284.147 159.345 286.349 156.966 289.468 156.966C292.41 156.966 294.187 158.743 294.746 161.281C296.642 161.074 298.527 160.856 300.404 160.627C299.552 154.967 295.663 151.833 290.944 151.833ZM34.7916 101.246H50.4928L52.6912 103.739C52.4302 104.082 52.2673 104.507 52.2673 104.975C52.2673 106.103 53.179 107.018 54.305 107.019C55.431 107.019 56.3416 106.103 56.3427 104.975C56.3427 103.846 55.431 102.93 54.305 102.93C53.9927 102.93 53.6998 103.005 53.4354 103.131L50.9247 100.285H34.8554C34.6856 99.3274 33.8582 98.6001 32.8541 98.6001C31.7293 98.6001 30.8175 99.5149 30.8175 100.645C30.8175 101.774 31.7293 102.69 32.8541 102.69C33.7704 102.69 34.534 102.08 34.7916 101.246ZM54.305 103.893C54.8999 103.893 55.382 104.376 55.3831 104.975C55.382 105.571 54.8999 106.055 54.305 106.058C53.709 106.056 53.2269 105.571 53.2269 104.975C53.2269 104.376 53.709 103.893 54.305 103.893ZM32.8541 101.728C32.2592 101.726 31.7771 101.243 31.7771 100.646C31.7771 100.048 32.2592 99.5641 32.8541 99.5641C33.4502 99.5641 33.9322 100.048 33.9334 100.646C33.9322 101.243 33.4502 101.726 32.8541 101.728ZM133.033 145.498C131.907 145.498 130.997 146.413 130.997 147.541C130.997 148.459 131.604 149.227 132.434 149.485V152.217C132.754 152.292 133.072 152.371 133.394 152.447V149.549C134.346 149.38 135.071 148.547 135.071 147.541C135.072 146.412 134.159 145.498 133.033 145.498ZM133.033 148.624C132.439 148.624 131.958 148.138 131.954 147.541C131.956 146.945 132.439 146.461 133.033 146.459C133.63 146.461 134.112 146.946 134.112 147.541C134.113 148.138 133.631 148.624 133.033 148.624ZM312.383 145.77L306.758 146.371V152.248H302.516V157.107H306.758V159.809C308.629 159.554 310.487 159.29 312.339 159.014V157.107H318.656V152.248H312.385V145.77H312.383ZM333.915 151.509C329.015 151.509 325.304 153.721 323.358 157.236C329.488 156.165 335.494 154.981 341.361 153.686C339.426 152.242 336.893 151.509 333.915 151.509ZM240.642 164.227C242.523 164.226 244.399 164.215 246.268 164.193V152.109H240.642V164.227ZM160.191 155.348C158.899 153.081 155.993 151.647 152.95 151.647C149.518 151.623 146.476 152.72 144.33 154.864C147.475 155.512 150.662 156.127 153.879 156.711C154.563 156.748 155.196 156.861 155.765 157.053C159.065 157.639 162.397 158.193 165.768 158.71V152.203H160.374L160.191 155.348ZM69.2837 69.5022C83.9034 63.2478 87.7384 47.3758 80.5482 28.8585C73.358 10.3401 58.7383 0.720154 58.7383 0.720154C60.1754 3.72669 59.8165 12.7451 51.1891 27.6555C42.5607 42.5658 41.3629 46.1738 42.9208 54.1093C44.4788 62.0471 57.0607 71.6659 57.0607 71.6659C55.8629 68.6605 59.3378 59.2807 63.4121 44.8507C67.4876 30.4207 64.611 19.4787 64.611 19.4787C70.0028 34.6292 66.2886 48.2175 60.7761 65.654C59.3515 70.1632 58.9184 74.1247 59.2238 77.7773C50.7925 65.4024 28.5427 71.0644 28.5427 71.0644C36.8111 66.8559 51.7898 69.8624 51.7898 69.8624C44.5996 60.3614 38.2493 61.2042 29.981 66.6157C21.7127 72.0261 18.9558 70.5829 18.9558 70.5829C31.2985 84.7728 44.3602 84.1712 50.2318 76.8361C54.24 71.8272 57.8585 77.3004 59.7504 81.2779C61.7015 90.0997 67.9491 97.4267 74.5592 107.138C83.8225 120.749 83.8339 129.461 77.8016 134.139C79.6604 134.967 81.5454 135.78 83.4646 136.58C84.8573 134.484 85.7018 132.052 85.7018 129.262C85.7018 119.522 82.5871 111.707 69.5253 94.1514C56.4613 76.596 61.135 73.4694 69.2837 69.5022ZM182.827 138.296C186.285 138.296 190.205 137.091 192.602 134.594L189.006 131.03C187.715 132.373 184.993 133.159 182.919 133.159C178.953 133.159 176.508 131.124 176.14 128.301H193.894C194.771 118.907 190.02 114.187 182.411 114.187C175.033 114.187 170.329 119.185 170.329 126.124C170.329 133.438 174.987 138.296 182.827 138.296ZM182.595 119.185C185.823 119.185 188.13 120.666 188.499 123.627H176.233C177.062 120.666 179.553 119.185 182.595 119.185ZM160.329 117.982C158.992 115.623 155.256 114.327 152.858 114.327C146.217 114.327 141.284 118.398 141.284 126.264C141.284 133.76 146.309 138.202 152.996 138.202C155.763 138.202 158.575 137.276 160.329 134.547L160.697 137.693H165.953V105.35H160.327V117.982H160.329ZM153.365 132.973C149.768 132.973 146.909 130.244 146.909 126.264C146.909 122.146 149.768 119.6 153.365 119.6C156.916 119.6 159.959 122.284 159.959 126.264C159.959 130.383 156.916 132.973 153.365 132.973ZM215.885 131.029C214.594 132.372 211.874 133.157 209.797 133.157C205.832 133.157 203.389 131.123 203.019 128.299H220.773C221.65 118.906 216.9 114.186 209.291 114.186C201.913 114.186 197.208 119.184 197.208 126.123C197.208 133.435 201.866 138.293 209.706 138.293C213.164 138.293 217.084 137.089 219.481 134.592L215.885 131.029ZM209.475 119.185C212.702 119.185 215.01 120.666 215.377 123.627H203.111C203.942 120.666 206.432 119.185 209.475 119.185ZM224.922 151.647C222.523 151.647 218.787 152.943 217.45 155.302V142.669H211.823V163.452C213.819 163.562 215.823 163.661 217.833 163.748C217.832 163.691 217.818 163.641 217.818 163.584C217.818 159.606 220.861 156.922 224.411 156.922C228.009 156.922 230.867 159.467 230.867 163.584C230.867 163.777 230.83 163.952 230.816 164.14C232.694 164.172 234.577 164.197 236.467 164.21C236.475 164.002 236.493 163.799 236.493 163.584C236.496 155.717 231.563 151.647 224.922 151.647ZM196.477 151.877C193.525 151.877 190.896 152.803 188.867 156.043C187.576 152.896 184.854 151.786 182.135 151.786C179.967 151.786 177.338 152.617 176.139 154.933L175.724 152.155H170.515V159.409C172.542 159.697 174.578 159.977 176.629 160.24C177.351 158.408 178.852 157.06 180.982 157.06C183.538 157.06 185.038 158.94 185.481 161.289C187.424 161.501 189.375 161.702 191.337 161.893C191.676 159.283 193.466 157.153 196.199 157.153C199.24 157.153 200.485 159.693 200.487 162.697C202.356 162.843 204.231 162.978 206.113 163.104V162.705C206.113 155.857 202.932 151.877 196.477 151.877ZM262.405 151.509C255.026 151.509 250.323 156.505 250.323 163.446C250.323 163.676 250.341 163.898 250.35 164.123C258.336 163.965 266.217 163.624 273.972 163.11C273.83 155.396 269.299 151.509 262.405 151.509ZM256.226 160.946C257.057 157.985 259.547 156.504 262.59 156.504C265.818 156.504 268.123 157.985 268.492 160.946H256.226ZM113.262 109.6V116.598L121.352 124.6C121.165 124.909 121.051 125.268 121.051 125.655C121.051 126.784 121.963 127.699 123.088 127.699C124.214 127.699 125.124 126.784 125.126 125.655C125.124 124.527 124.214 123.612 123.088 123.612C122.7 123.612 122.339 123.727 122.029 123.917L114.22 116.196V109.6C115.113 109.384 115.777 108.583 115.779 107.62C115.778 106.491 114.866 105.575 113.741 105.575C112.615 105.575 111.703 106.49 111.703 107.62C111.705 108.583 112.369 109.384 113.262 109.6ZM123.088 124.574C123.684 124.575 124.167 125.058 124.167 125.655C124.167 126.252 123.684 126.736 123.088 126.738C122.494 126.737 122.012 126.254 122.009 125.655C122.012 125.058 122.493 124.576 123.088 124.574ZM113.741 106.537C114.337 106.538 114.819 107.023 114.819 107.62C114.819 108.217 114.337 108.7 113.741 108.702C113.146 108.7 112.664 108.218 112.662 107.62C112.664 107.023 113.146 106.538 113.741 106.537ZM113.382 128.542C112.257 128.542 111.347 129.457 111.347 130.586C111.347 131.592 112.07 132.422 113.023 132.594V147.026C113.342 147.121 113.66 147.217 113.98 147.311V132.53C114.811 132.27 115.419 131.504 115.419 130.584C115.419 129.457 114.508 128.542 113.382 128.542ZM113.382 131.669C112.787 131.667 112.305 131.184 112.304 130.586C112.306 129.989 112.787 129.505 113.382 129.504C113.977 129.505 114.458 129.989 114.461 130.586C114.458 131.184 113.977 131.667 113.382 131.669ZM107.39 141.889C106.264 141.889 105.352 142.804 105.352 143.933C105.352 144.207 105.423 144.461 105.521 144.699C106.501 145.017 107.492 145.328 108.484 145.639C109.048 145.277 109.426 144.655 109.427 143.933C109.426 142.804 108.516 141.889 107.39 141.889ZM107.39 145.017C106.795 145.014 106.313 144.531 106.312 143.934C106.313 143.338 106.795 142.853 107.39 142.853C107.984 142.853 108.468 143.338 108.468 143.934C108.469 144.531 107.985 145.014 107.39 145.017ZM120.332 118.201C120.586 118.201 120.826 118.15 121.05 118.064L125.365 122.719V132.092C124.473 132.309 123.808 133.112 123.808 134.072C123.808 135.201 124.72 136.117 125.844 136.117C126.97 136.117 127.881 135.201 127.883 134.072C127.881 133.111 127.219 132.309 126.324 132.092V122.34L121.849 117.512C122.169 117.15 122.371 116.678 122.371 116.157C122.368 115.028 121.459 114.113 120.333 114.113C119.208 114.113 118.296 115.028 118.296 116.157C118.295 117.287 119.207 118.2 120.332 118.201ZM126.923 134.072C126.923 134.67 126.438 135.154 125.843 135.154C125.25 135.154 124.767 134.67 124.765 134.072C124.767 133.475 125.25 132.993 125.843 132.991C126.438 132.993 126.923 133.475 126.923 134.072ZM120.332 115.075C120.926 115.076 121.411 115.559 121.411 116.157C121.411 116.754 120.927 117.239 120.332 117.24C119.737 117.239 119.255 116.754 119.254 116.157C119.255 115.559 119.736 115.076 120.332 115.075ZM107.749 133.593C108.875 133.591 109.788 132.676 109.788 131.547C109.788 130.419 108.875 129.504 107.749 129.504C106.626 129.504 105.712 130.419 105.712 131.547C105.712 132.037 105.892 132.478 106.177 132.832L103.436 135.683V144.01C103.755 144.115 104.073 144.221 104.394 144.326V136.07L106.94 133.422C107.189 133.53 107.463 133.593 107.749 133.593ZM107.749 130.467C108.346 130.468 108.827 130.95 108.827 131.547C108.827 132.144 108.346 132.63 107.749 132.63C107.154 132.63 106.672 132.144 106.672 131.547C106.672 130.95 107.154 130.468 107.749 130.467ZM119.013 127.22C119.013 126.09 118.103 125.176 116.977 125.176C115.851 125.176 114.939 126.09 114.939 127.22C114.939 128.138 115.546 128.906 116.377 129.163V148.011C116.695 148.101 117.017 148.19 117.334 148.281V129.227C118.29 129.057 119.013 128.225 119.013 127.22ZM116.978 128.302C116.383 128.301 115.901 127.817 115.9 127.22C115.901 126.622 116.383 126.138 116.978 126.138C117.572 126.139 118.054 126.622 118.056 127.22C118.054 127.817 117.572 128.301 116.978 128.302ZM100.201 141.528C99.5328 141.528 98.9459 141.856 98.5744 142.354C98.9117 142.473 99.2502 142.589 99.5887 142.707C99.7642 142.582 99.9682 142.492 100.201 142.492C100.69 142.492 101.085 142.824 101.218 143.273C101.553 143.388 101.893 143.498 102.23 143.612C102.23 143.6 102.236 143.588 102.236 143.575C102.236 142.445 101.327 141.528 100.201 141.528ZM110.386 134.795C109.261 134.795 108.349 135.709 108.349 136.838C108.349 137.801 109.015 138.603 109.905 138.821V146.086C110.225 146.184 110.544 146.285 110.866 146.382V138.822C111.757 138.604 112.423 137.801 112.423 136.839C112.423 135.709 111.512 134.795 110.386 134.795ZM110.386 137.921C109.792 137.921 109.31 137.437 109.308 136.839C109.31 136.243 109.792 135.759 110.386 135.757C110.981 135.759 111.463 136.243 111.464 136.839C111.463 137.437 110.981 137.921 110.386 137.921ZM121.891 133.832C121.891 132.705 120.978 131.789 119.853 131.789C118.729 131.789 117.817 132.705 117.817 133.832C117.817 134.837 118.543 135.668 119.494 135.839V148.89C119.813 148.979 120.134 149.066 120.454 149.155V135.779C121.282 135.518 121.891 134.752 121.891 133.832ZM119.852 134.914C119.257 134.914 118.776 134.431 118.776 133.833C118.776 133.236 119.257 132.753 119.852 132.753C120.448 132.753 120.93 133.236 120.93 133.833C120.93 134.431 120.448 134.914 119.852 134.914ZM60.8023 125.713C65.0236 128.049 69.4683 130.298 74.1125 132.461C78.2814 128.75 79.4701 124.333 79.4701 124.333C72.3232 122.985 65.7154 123.768 60.8023 125.713ZM100.201 110.145C99.0747 110.145 98.1641 111.06 98.1641 112.19C98.1641 113.108 98.7704 113.875 99.6012 114.134V135.941C98.7077 136.156 98.0433 136.959 98.0433 137.921C98.0433 139.049 98.9562 139.967 100.081 139.967C101.207 139.967 102.119 139.049 102.119 137.921C102.119 136.958 101.453 136.156 100.56 135.941V114.197C101.512 114.026 102.236 113.194 102.236 112.188C102.236 111.06 101.327 110.145 100.201 110.145ZM101.159 137.921C101.158 138.52 100.676 139.002 100.081 139.002C99.485 139.002 99.0017 138.52 99.0017 137.921C99.0017 137.325 99.4838 136.842 100.081 136.839C100.676 136.841 101.158 137.324 101.159 137.921ZM100.201 113.27C99.6058 113.269 99.1248 112.785 99.1214 112.188C99.1248 111.591 99.6058 111.109 100.201 111.107C100.794 111.109 101.278 111.591 101.279 112.188C101.278 112.786 100.794 113.269 100.201 113.27ZM96.2848 112.752L104.062 105.098C104.343 105.244 104.656 105.335 104.992 105.335C106.118 105.335 107.031 104.421 107.031 103.291C107.031 102.162 106.118 101.248 104.992 101.246C103.869 101.246 102.955 102.161 102.955 103.291C102.955 103.73 103.099 104.135 103.333 104.469L95.3275 112.348V122.099C94.6174 120.126 93.6727 118.267 92.5307 116.552V107.062L98.4946 101.221C98.7864 101.387 99.1203 101.488 99.4793 101.488C100.604 101.488 101.517 100.573 101.517 99.4429C101.517 98.313 100.604 97.3981 99.4793 97.3981C98.3567 97.3981 97.4427 98.313 97.4427 99.4429C97.4427 99.8603 97.5692 100.248 97.7823 100.572L91.5722 106.656V115.207C90.4622 113.755 89.204 112.423 87.817 111.238V104.087L92.3723 99.3731C92.7153 99.6385 93.1404 99.8043 93.6088 99.8043C94.7337 99.8043 95.6454 98.8894 95.6454 97.7607C95.6454 96.6308 94.7348 95.717 93.6088 95.7159C92.484 95.7159 91.5722 96.6308 91.5722 97.7607C91.5722 98.0683 91.644 98.3576 91.766 98.6195L86.8574 103.698V110.459C85.9012 109.719 84.8926 109.041 83.8373 108.44C84.4664 109.82 85.0396 111.185 85.5502 112.482C86.2819 113.06 86.9805 113.673 87.6381 114.333C91.8469 118.558 94.4476 124.383 94.4476 130.828C94.4476 134.151 93.7467 137.302 92.5011 140.16C93.2464 140.439 94.0032 140.711 94.7565 140.989C94.9901 140.442 95.2101 139.89 95.4072 139.326V141.226C95.7275 141.342 96.0443 141.46 96.3646 141.576V135.781C96.6768 134.178 96.8444 132.523 96.8444 130.829C96.8444 128.992 96.6495 127.199 96.2836 125.471V112.752H96.2848ZM104.993 102.208C105.59 102.21 106.072 102.693 106.072 103.291C106.072 103.889 105.59 104.372 104.993 104.373C104.399 104.372 103.917 103.889 103.917 103.291C103.916 102.693 104.398 102.21 104.993 102.208ZM99.4804 98.361C100.078 98.361 100.56 98.8448 100.56 99.4429C100.56 100.04 100.078 100.524 99.4804 100.526C98.8855 100.525 98.4034 100.041 98.4034 99.4429C98.4034 98.8448 98.8855 98.361 99.4804 98.361ZM93.61 96.6765C94.2037 96.6788 94.6892 97.1614 94.6892 97.7595C94.6892 98.3565 94.2049 98.8402 93.61 98.8414C93.0151 98.8402 92.533 98.3565 92.5318 97.7595C92.533 97.1614 93.0139 96.6788 93.61 96.6765ZM129.439 150.908C129.042 150.908 128.68 151.027 128.367 151.223C129.302 151.459 130.244 151.688 131.187 151.917C130.832 151.317 130.187 150.908 129.439 150.908ZM83.5433 100.645C84.6693 100.645 85.581 99.7299 85.581 98.6001C85.581 97.4713 84.6693 96.5564 83.5433 96.5564C82.4184 96.5564 81.5067 97.4713 81.5067 98.6001C81.5067 98.9591 81.6058 99.2897 81.7676 99.5824L80.2439 101.11C79.918 100.893 79.5293 100.765 79.1099 100.765C77.9839 100.765 77.0711 101.68 77.0711 102.81C77.0711 103.938 77.9839 104.853 79.1099 104.854C80.2337 104.854 81.1465 103.938 81.1465 102.81C81.1465 102.452 81.0485 102.12 80.8855 101.827L82.4093 100.299C82.733 100.518 83.1227 100.645 83.5433 100.645ZM83.5433 97.5194C84.1393 97.5205 84.6214 98.0042 84.6225 98.6012C84.6214 99.1993 84.1393 99.6819 83.5433 99.6842C82.9472 99.6819 82.4663 99.1982 82.4651 98.6012C82.4663 98.0031 82.9472 97.5205 83.5433 97.5194ZM79.1111 103.893C78.515 103.89 78.0329 103.407 78.0318 102.81C78.0329 102.213 78.5139 101.729 79.1111 101.728C79.706 101.729 80.1892 102.213 80.1892 102.81C80.1881 103.407 79.706 103.89 79.1111 103.893ZM126.443 147.541C126.444 148.67 127.356 149.585 128.48 149.585C129.606 149.585 130.517 148.67 130.517 147.541C130.517 146.623 129.911 145.856 129.08 145.596V136.068L131.69 133.263C132.008 133.47 132.386 133.594 132.794 133.594C133.919 133.592 134.832 132.677 134.832 131.548C134.832 130.42 133.919 129.505 132.794 129.505C131.67 129.505 130.756 130.42 130.756 131.548C130.756 131.917 130.862 132.259 131.032 132.558L128.121 135.687V145.532C127.169 145.703 126.445 146.535 126.443 147.541ZM132.794 130.467C133.39 130.468 133.872 130.95 133.872 131.547C133.872 132.144 133.39 132.63 132.794 132.63C132.199 132.63 131.717 132.144 131.717 131.547C131.717 130.95 132.199 130.468 132.794 130.467ZM128.48 146.459C129.074 146.461 129.557 146.946 129.56 147.541C129.557 148.138 129.075 148.624 128.48 148.624C127.887 148.624 127.402 148.138 127.402 147.541C127.402 146.945 127.887 146.46 128.48 146.459ZM123.328 142.815C124.282 142.643 125.006 141.815 125.006 140.807C125.006 139.679 124.095 138.762 122.97 138.762C121.844 138.762 120.934 139.679 120.931 140.807C120.934 141.725 121.541 142.494 122.371 142.752V147.401L126.184 150.672C126.88 150.849 127.58 151.027 128.282 151.202L123.329 146.96V142.815H123.328ZM121.891 140.807C121.891 140.209 122.374 139.724 122.97 139.724C123.564 139.724 124.046 140.209 124.048 140.807C124.046 141.405 123.564 141.888 122.97 141.889C122.374 141.888 121.891 141.405 121.891 140.807ZM108.708 108.481V117.903L112.388 122.03C112.187 122.348 112.062 122.723 112.062 123.13C112.062 124.259 112.975 125.175 114.101 125.175C115.225 125.174 116.138 124.259 116.138 123.13C116.138 122.002 115.225 121.086 114.101 121.086C113.73 121.086 113.384 121.193 113.086 121.368L109.666 117.535V108.543C110.62 108.372 111.343 107.541 111.346 106.536C111.343 105.407 110.433 104.492 109.307 104.492C108.182 104.492 107.27 105.407 107.27 106.536C107.271 107.455 107.878 108.222 108.708 108.481ZM114.101 122.049C114.696 122.05 115.177 122.533 115.177 123.13C115.177 123.727 114.696 124.212 114.101 124.212C113.505 124.211 113.023 123.727 113.023 123.13C113.023 122.533 113.505 122.05 114.101 122.049ZM109.308 105.455C109.903 105.456 110.386 105.94 110.386 106.537C110.386 107.134 109.903 107.617 109.308 107.62C108.713 107.619 108.231 107.135 108.23 106.537C108.231 105.94 108.713 105.456 109.308 105.455ZM76.8329 93.0696C75.7069 93.0696 74.7963 93.9845 74.7963 95.1132C74.7963 96.2431 75.7069 97.158 76.8329 97.158C77.7788 97.158 78.5652 96.5084 78.7954 95.6347H85.6927C85.9616 96.4478 86.7172 97.0379 87.6176 97.0379C88.7424 97.0379 89.6542 96.123 89.6553 94.9943C89.6542 93.8644 88.7424 92.9495 87.6176 92.9484C86.6021 92.9495 85.7679 93.6963 85.6129 94.6718H78.8193C78.6176 93.7569 77.8073 93.0696 76.8329 93.0696ZM76.8329 96.1962C76.238 96.1951 75.757 95.7113 75.7536 95.1132C75.757 94.5151 76.238 94.0325 76.8329 94.0314C77.4289 94.0325 77.9099 94.5151 77.911 95.1132C77.9099 95.7113 77.4289 96.1951 76.8329 96.1962ZM87.6176 93.9113C88.2125 93.9124 88.6957 94.395 88.6957 94.9943C88.6957 95.5912 88.2136 96.075 87.6176 96.0761C87.0227 96.075 86.5406 95.5912 86.5395 94.9943C86.5406 94.3962 87.0227 93.9124 87.6176 93.9113ZM103.677 120.2L108.818 125.474C108.598 125.801 108.469 126.194 108.469 126.618C108.469 127.747 109.382 128.663 110.506 128.663C111.63 128.663 112.544 127.748 112.544 126.618C112.544 125.488 111.632 124.575 110.506 124.574C110.152 124.574 109.825 124.672 109.535 124.832L104.634 119.808V111.885C105.528 111.668 106.193 110.866 106.193 109.905C106.193 108.775 105.28 107.86 104.155 107.86C103.029 107.86 102.119 108.775 102.119 109.905C102.119 110.868 102.783 111.668 103.677 111.885V120.2ZM110.504 125.535C111.101 125.537 111.584 126.02 111.584 126.617C111.584 127.214 111.102 127.698 110.504 127.699C109.91 127.698 109.427 127.215 109.427 126.617C109.429 126.02 109.91 125.537 110.504 125.535ZM103.075 109.905C103.077 109.308 103.559 108.823 104.154 108.823C104.75 108.824 105.232 109.308 105.232 109.905C105.232 110.503 104.75 110.985 104.154 110.986C103.559 110.984 103.077 110.502 103.075 109.905Z" fill="url(#paint14_linear_3_44)"/>
<defs>
<linearGradient id="paint0_linear_3_44" x1="153.618" y1="113.432" x2="153.618" y2="178.004" gradientUnits="userSpaceOnUse">
<stop stop-color="#97B73C"/>
<stop offset="1" stop-color="#1B75BB"/>
</linearGradient>
<linearGradient id="paint1_linear_3_44" x1="182.164" y1="113.432" x2="182.164" y2="178.006" gradientUnits="userSpaceOnUse">
<stop stop-color="#97B73C"/>
<stop offset="1" stop-color="#1B75BB"/>
</linearGradient>
<linearGradient id="paint2_linear_3_44" x1="209.043" y1="113.432" x2="209.043" y2="178.006" gradientUnits="userSpaceOnUse">
<stop stop-color="#97B73C"/>
<stop offset="1" stop-color="#1B75BB"/>
</linearGradient>
<linearGradient id="paint3_linear_3_44" x1="237.438" y1="113.432" x2="237.438" y2="178.005" gradientUnits="userSpaceOnUse">
<stop stop-color="#97B73C"/>
<stop offset="1" stop-color="#1B75BB"/>
</linearGradient>
<linearGradient id="paint4_linear_3_44" x1="52.3269" y1="97.9333" x2="52.3269" y2="174.296" gradientUnits="userSpaceOnUse">
<stop stop-color="#97B73C"/>
<stop offset="1" stop-color="#1B75BB"/>
</linearGradient>
<linearGradient id="paint5_linear_3_44" x1="67.7859" y1="97.9337" x2="67.7859" y2="174.296" gradientUnits="userSpaceOnUse">
<stop stop-color="#97B73C"/>
<stop offset="1" stop-color="#1B75BB"/>
</linearGradient>
<linearGradient id="paint6_linear_3_44" x1="153.434" y1="113.43" x2="153.434" y2="178.006" gradientUnits="userSpaceOnUse">
<stop stop-color="#97B73C"/>
<stop offset="1" stop-color="#1B75BB"/>
</linearGradient>
<linearGradient id="paint7_linear_3_44" x1="188.314" y1="113.431" x2="188.314" y2="178.006" gradientUnits="userSpaceOnUse">
<stop stop-color="#97B73C"/>
<stop offset="1" stop-color="#1B75BB"/>
</linearGradient>
<linearGradient id="paint8_linear_3_44" x1="224.16" y1="113.431" x2="224.16" y2="178.006" gradientUnits="userSpaceOnUse">
<stop stop-color="#97B73C"/>
<stop offset="1" stop-color="#1B75BB"/>
</linearGradient>
<linearGradient id="paint9_linear_3_44" x1="243.455" y1="113.429" x2="243.455" y2="178.006" gradientUnits="userSpaceOnUse">
<stop stop-color="#97B73C"/>
<stop offset="1" stop-color="#1B75BB"/>
</linearGradient>
<linearGradient id="paint10_linear_3_44" x1="262.157" y1="113.432" x2="262.157" y2="178.006" gradientUnits="userSpaceOnUse">
<stop stop-color="#97B73C"/>
<stop offset="1" stop-color="#1B75BB"/>
</linearGradient>
<linearGradient id="paint11_linear_3_44" x1="289.33" y1="113.431" x2="289.33" y2="178.006" gradientUnits="userSpaceOnUse">
<stop stop-color="#97B73C"/>
<stop offset="1" stop-color="#1B75BB"/>
</linearGradient>
<linearGradient id="paint12_linear_3_44" x1="311.046" y1="113.431" x2="311.046" y2="178.005" gradientUnits="userSpaceOnUse">
<stop stop-color="#97B73C"/>
<stop offset="1" stop-color="#1B75BB"/>
</linearGradient>
<linearGradient id="paint13_linear_3_44" x1="333.667" y1="113.432" x2="333.667" y2="178.006" gradientUnits="userSpaceOnUse">
<stop stop-color="#97B73C"/>
<stop offset="1" stop-color="#1B75BB"/>
</linearGradient>
<linearGradient id="paint14_linear_3_44" x1="173.148" y1="133.232" x2="145.268" y2="216.568" gradientUnits="userSpaceOnUse">
<stop stop-opacity="0"/>
<stop offset="1" stop-color="white"/>
</linearGradient>
</defs>
</svg>
